<?xml version="1.0" encoding="UTF-8"?>
<svg id="Layer_1" xmlns="http://www.w3.org/2000/svg" version="1.1" viewBox="0 0 290 290">
  <!-- Generator: Adobe Illustrator 29.8.1, SVG Export Plug-In . SVG Version: 2.1.1 Build 2)  -->
  <defs>
    <style>
      .st0 {
        fill: #010101;
      }

      .st1 {
        fill: #030303;
      }

      .st2 {
        fill-rule: evenodd;
      }

      .st3 {
        fill: #fdfdfd;
      }
    </style>
  </defs>
  <rect x="80" width="10" height="10"/>
  <rect x="90" width="10" height="10"/>
  <rect x="150" width="10" height="10"/>
  <rect x="180" width="10" height="10"/>
  <rect x="190" width="10" height="10"/>
  <rect x="110" y="10" width="10" height="10"/>
  <rect x="130" y="10" width="10" height="10"/>
  <rect x="150" y="10" width="10" height="10"/>
  <rect x="170" y="10" width="10" height="10"/>
  <rect x="190" y="10" width="10" height="10"/>
  <rect x="80" y="20" width="10" height="10"/>
  <rect x="100" y="20" width="10" height="10"/>
  <rect x="150" y="20" width="10" height="10"/>
  <rect x="160" y="20" width="10" height="10"/>
  <rect x="180" y="20" width="10" height="10"/>
  <rect x="190" y="20" width="10" height="10"/>
  <rect x="200" y="20" width="10" height="10"/>
  <rect x="90" y="30" width="10" height="10"/>
  <rect x="110" y="30" width="10" height="10"/>
  <rect x="120" y="30" width="10" height="10"/>
  <rect x="160" y="30" width="10" height="10"/>
  <rect x="170" y="30" width="10" height="10"/>
  <rect x="190" y="30" width="10" height="10"/>
  <rect x="200" y="30" width="10" height="10"/>
  <rect x="80" y="40" width="10" height="10"/>
  <rect x="90" y="40" width="10" height="10"/>
  <rect x="120" y="40" width="10" height="10"/>
  <rect x="130" y="40" width="10" height="10"/>
  <rect x="140" y="40" width="10" height="10"/>
  <rect x="160" y="40" width="10" height="10"/>
  <rect x="180" y="40" width="10" height="10"/>
  <rect x="190" y="40" width="10" height="10"/>
  <rect x="200" y="40" width="10" height="10"/>
  <rect x="90" y="50" width="10" height="10"/>
  <rect x="110" y="50" width="10" height="10"/>
  <rect x="120" y="50" width="10" height="10"/>
  <rect x="130" y="50" width="10" height="10"/>
  <rect x="180" y="50" width="10" height="10"/>
  <rect x="200" y="50" width="10" height="10"/>
  <rect x="80" y="60" width="10" height="10"/>
  <rect x="100" y="60" width="10" height="10"/>
  <rect x="120" y="60" width="10" height="10"/>
  <rect x="140" y="60" width="10" height="10"/>
  <rect x="160" y="60" width="10" height="10"/>
  <rect x="180" y="60" width="10" height="10"/>
  <rect x="200" y="60" width="10" height="10"/>
  <rect x="80" y="70" width="10" height="10"/>
  <rect x="110" y="70" width="10" height="10"/>
  <rect x="120" y="70" width="10" height="10"/>
  <rect x="130" y="70" width="10" height="10"/>
  <rect x="140" y="70" width="10" height="10"/>
  <rect x="160" y="70" width="10" height="10"/>
  <rect x="50" y="80" width="10" height="10"/>
  <rect x="60" y="80" width="10" height="10"/>
  <rect x="100" y="80" width="10" height="10"/>
  <rect x="130" y="80" width="10" height="10"/>
  <rect x="140" y="80" width="10" height="10"/>
  <rect x="150" y="80" width="10" height="10"/>
  <rect x="160" y="80" width="10" height="10"/>
  <rect x="180" y="80" width="10" height="10"/>
  <rect x="190" y="80" width="10" height="10"/>
  <rect x="200" y="80" width="10" height="10"/>
  <rect x="220" y="80" width="10" height="10"/>
  <rect x="240" y="80" width="10" height="10"/>
  <rect x="260" y="80" width="10" height="10"/>
  <rect x="280" y="80" width="10" height="10"/>
  <rect x="10" y="90" width="10" height="10"/>
  <rect x="20" y="90" width="10" height="10"/>
  <rect x="30" y="90" width="10" height="10"/>
  <rect x="70" y="90" width="10" height="10"/>
  <rect x="90" y="90" width="10" height="10"/>
  <rect x="100" y="90" width="10" height="10"/>
  <rect x="110" y="90" width="10" height="10"/>
  <rect x="120" y="90" width="10" height="10"/>
  <rect x="150" y="90" width="10" height="10"/>
  <rect x="160" y="90" width="10" height="10"/>
  <rect x="170" y="90" width="10" height="10"/>
  <rect x="200" y="90" width="10" height="10"/>
  <rect x="220" y="90" width="10" height="10"/>
  <rect x="240" y="90" width="10" height="10"/>
  <rect x="260" y="90" width="10" height="10"/>
  <rect x="270" y="90" width="10" height="10"/>
  <rect x="10" y="100" width="10" height="10"/>
  <rect x="30" y="100" width="10" height="10"/>
  <rect x="50" y="100" width="10" height="10"/>
  <rect x="60" y="100" width="10" height="10"/>
  <rect x="90" y="100" width="10" height="10"/>
  <rect x="200" y="100" width="10" height="10"/>
  <rect x="210" y="100" width="10" height="10"/>
  <rect x="220" y="100" width="10" height="10"/>
  <rect x="230" y="100" width="10" height="10"/>
  <rect x="240" y="100" width="10" height="10"/>
  <rect x="250" y="100" width="10" height="10"/>
  <rect x="260" y="100" width="10" height="10"/>
  <rect y="110" width="10" height="10"/>
  <rect x="30" y="110" width="10" height="10"/>
  <rect x="220" y="110" width="10" height="10"/>
  <rect x="230" y="110" width="10" height="10"/>
  <rect x="30" y="120" width="10" height="10"/>
  <rect x="40" y="120" width="10" height="10"/>
  <rect x="60" y="120" width="10" height="10"/>
  <rect x="70" y="120" width="10" height="10"/>
  <rect x="80" y="120" width="10" height="10"/>
  <rect x="90" y="120" width="10" height="10"/>
  <rect x="190" y="120" width="10" height="10"/>
  <rect x="210" y="120" width="10" height="10"/>
  <rect x="220" y="120" width="10" height="10"/>
  <rect x="250" y="120" width="10" height="10"/>
  <rect x="270" y="120" width="10" height="10"/>
  <rect x="10" y="130" width="10" height="10"/>
  <rect x="40" y="130" width="10" height="10"/>
  <rect x="50" y="130" width="10" height="10"/>
  <rect x="70" y="130" width="10" height="10"/>
  <rect x="80" y="130" width="10" height="10"/>
  <rect x="90" y="130" width="10" height="10"/>
  <rect x="190" y="130" width="10" height="10"/>
  <rect x="200" y="130" width="10" height="10"/>
  <rect x="220" y="130" width="10" height="10"/>
  <rect x="240" y="130" width="10" height="10"/>
  <rect x="250" y="130" width="10" height="10"/>
  <rect x="270" y="130" width="10" height="10"/>
  <rect x="280" y="130" width="10" height="10"/>
  <rect x="10" y="140" width="10" height="10"/>
  <rect x="20" y="140" width="10" height="10"/>
  <rect x="50" y="140" width="10" height="10"/>
  <rect x="60" y="140" width="10" height="10"/>
  <rect x="70" y="140" width="10" height="10"/>
  <rect x="220" y="140" width="10" height="10"/>
  <rect x="230" y="140" width="10" height="10"/>
  <rect x="10" y="150" width="10" height="10"/>
  <rect x="20" y="150" width="10" height="10"/>
  <rect x="50" y="150" width="10" height="10"/>
  <rect x="190" y="150" width="10" height="10"/>
  <rect x="200" y="150" width="10" height="10"/>
  <rect x="240" y="150" width="10" height="10"/>
  <rect x="250" y="150" width="10" height="10"/>
  <rect x="260" y="150" width="10" height="10"/>
  <rect x="270" y="150" width="10" height="10"/>
  <rect x="280" y="150" width="10" height="10"/>
  <rect x="10" y="160" width="10" height="10"/>
  <rect x="20" y="160" width="10" height="10"/>
  <rect x="60" y="160" width="10" height="10"/>
  <rect x="70" y="160" width="10" height="10"/>
  <rect x="80" y="160" width="10" height="10"/>
  <rect x="220" y="160" width="10" height="10"/>
  <rect x="250" y="160" width="10" height="10"/>
  <rect x="260" y="160" width="10" height="10"/>
  <rect x="270" y="160" width="10" height="10"/>
  <rect y="170" width="10" height="10"/>
  <rect x="10" y="170" width="10" height="10"/>
  <rect x="30" y="170" width="10" height="10"/>
  <rect x="50" y="170" width="10" height="10"/>
  <rect x="70" y="170" width="10" height="10"/>
  <rect x="90" y="170" width="10" height="10"/>
  <rect x="200" y="170" width="10" height="10"/>
  <rect x="230" y="170" width="10" height="10"/>
  <rect x="240" y="170" width="10" height="10"/>
  <rect x="250" y="170" width="10" height="10"/>
  <rect x="260" y="170" width="10" height="10"/>
  <rect x="280" y="170" width="10" height="10"/>
  <rect y="180" width="10" height="10"/>
  <rect x="10" y="180" width="10" height="10"/>
  <rect x="40" y="180" width="10" height="10"/>
  <rect x="50" y="180" width="10" height="10"/>
  <rect x="60" y="180" width="10" height="10"/>
  <rect x="70" y="180" width="10" height="10"/>
  <rect x="90" y="180" width="10" height="10"/>
  <rect x="200" y="180" width="10" height="10"/>
  <rect x="250" y="180" width="10" height="10"/>
  <rect x="280" y="180" width="10" height="10"/>
  <rect y="190" width="10" height="10"/>
  <rect x="20" y="190" width="10" height="10"/>
  <rect x="40" y="190" width="10" height="10"/>
  <rect x="90" y="190" width="10" height="10"/>
  <rect x="100" y="190" width="10" height="10"/>
  <rect x="110" y="190" width="10" height="10"/>
  <rect x="120" y="190" width="10" height="10"/>
  <rect x="130" y="190" width="10" height="10"/>
  <rect x="180" y="190" width="10" height="10"/>
  <rect x="190" y="190" width="10" height="10"/>
  <rect x="200" y="190" width="10" height="10"/>
  <rect x="210" y="190" width="10" height="10"/>
  <rect x="220" y="190" width="10" height="10"/>
  <rect x="230" y="190" width="10" height="10"/>
  <rect x="250" y="190" width="10" height="10"/>
  <rect x="280" y="190" width="10" height="10"/>
  <rect y="200" width="10" height="10"/>
  <rect x="20" y="200" width="10" height="10"/>
  <rect x="30" y="200" width="10" height="10"/>
  <rect x="50" y="200" width="10" height="10"/>
  <rect x="60" y="200" width="10" height="10"/>
  <rect x="70" y="200" width="10" height="10"/>
  <rect x="100" y="200" width="10" height="10"/>
  <rect x="130" y="200" width="10" height="10"/>
  <rect x="150" y="200" width="10" height="10"/>
  <rect x="180" y="200" width="10" height="10"/>
  <rect x="190" y="200" width="10" height="10"/>
  <rect x="200" y="200" width="10" height="10"/>
  <rect x="210" y="200" width="10" height="10"/>
  <rect x="220" y="200" width="10" height="10"/>
  <rect x="230" y="200" width="10" height="10"/>
  <rect x="240" y="200" width="10" height="10"/>
  <rect x="260" y="200" width="10" height="10"/>
  <rect x="270" y="200" width="10" height="10"/>
  <rect x="80" y="210" width="10" height="10"/>
  <rect x="90" y="210" width="10" height="10"/>
  <rect x="100" y="210" width="10" height="10"/>
  <rect x="110" y="210" width="10" height="10"/>
  <rect x="120" y="210" width="10" height="10"/>
  <rect x="150" y="210" width="10" height="10"/>
  <rect x="160" y="210" width="10" height="10"/>
  <rect x="200" y="210" width="10" height="10"/>
  <rect x="240" y="210" width="10" height="10"/>
  <rect x="250" y="210" width="10" height="10"/>
  <rect x="260" y="210" width="10" height="10"/>
  <rect x="110" y="220" width="10" height="10"/>
  <rect x="140" y="220" width="10" height="10"/>
  <rect x="170" y="220" width="10" height="10"/>
  <rect x="180" y="220" width="10" height="10"/>
  <rect x="190" y="220" width="10" height="10"/>
  <rect x="200" y="220" width="10" height="10"/>
  <rect x="220" y="220" width="10" height="10"/>
  <rect x="240" y="220" width="10" height="10"/>
  <rect x="80" y="230" width="10" height="10"/>
  <rect x="120" y="230" width="10" height="10"/>
  <rect x="130" y="230" width="10" height="10"/>
  <rect x="140" y="230" width="10" height="10"/>
  <rect x="150" y="230" width="10" height="10"/>
  <rect x="160" y="230" width="10" height="10"/>
  <rect x="170" y="230" width="10" height="10"/>
  <rect x="190" y="230" width="10" height="10"/>
  <rect x="200" y="230" width="10" height="10"/>
  <rect x="240" y="230" width="10" height="10"/>
  <rect x="250" y="230" width="10" height="10"/>
  <rect x="270" y="230" width="10" height="10"/>
  <rect x="280" y="230" width="10" height="10"/>
  <rect x="90" y="240" width="10" height="10"/>
  <rect x="100" y="240" width="10" height="10"/>
  <rect x="120" y="240" width="10" height="10"/>
  <rect x="130" y="240" width="10" height="10"/>
  <rect x="140" y="240" width="10" height="10"/>
  <rect x="150" y="240" width="10" height="10"/>
  <rect x="160" y="240" width="10" height="10"/>
  <rect x="170" y="240" width="10" height="10"/>
  <rect x="180" y="240" width="10" height="10"/>
  <rect x="190" y="240" width="10" height="10"/>
  <rect x="200" y="240" width="10" height="10"/>
  <rect x="210" y="240" width="10" height="10"/>
  <rect x="220" y="240" width="10" height="10"/>
  <rect x="230" y="240" width="10" height="10"/>
  <rect x="240" y="240" width="10" height="10"/>
  <rect x="90" y="250" width="10" height="10"/>
  <rect x="110" y="250" width="10" height="10"/>
  <rect x="120" y="250" width="10" height="10"/>
  <rect x="150" y="250" width="10" height="10"/>
  <rect x="170" y="250" width="10" height="10"/>
  <rect x="190" y="250" width="10" height="10"/>
  <rect x="200" y="250" width="10" height="10"/>
  <rect x="230" y="250" width="10" height="10"/>
  <rect x="270" y="250" width="10" height="10"/>
  <rect x="90" y="260" width="10" height="10"/>
  <rect x="150" y="260" width="10" height="10"/>
  <rect x="170" y="260" width="10" height="10"/>
  <rect x="190" y="260" width="10" height="10"/>
  <rect x="200" y="260" width="10" height="10"/>
  <rect x="210" y="260" width="10" height="10"/>
  <rect x="220" y="260" width="10" height="10"/>
  <rect x="230" y="260" width="10" height="10"/>
  <rect x="240" y="260" width="10" height="10"/>
  <rect x="250" y="260" width="10" height="10"/>
  <rect x="260" y="260" width="10" height="10"/>
  <rect x="270" y="260" width="10" height="10"/>
  <rect x="90" y="270" width="10" height="10"/>
  <rect x="100" y="270" width="10" height="10"/>
  <rect x="120" y="270" width="10" height="10"/>
  <rect x="190" y="270" width="10" height="10"/>
  <rect x="200" y="270" width="10" height="10"/>
  <rect x="220" y="270" width="10" height="10"/>
  <rect x="240" y="270" width="10" height="10"/>
  <rect x="250" y="270" width="10" height="10"/>
  <rect x="260" y="270" width="10" height="10"/>
  <rect x="280" y="270" width="10" height="10"/>
  <rect x="110" y="280" width="10" height="10"/>
  <rect x="120" y="280" width="10" height="10"/>
  <rect x="140" y="280" width="10" height="10"/>
  <rect x="150" y="280" width="10" height="10"/>
  <rect x="170" y="280" width="10" height="10"/>
  <rect x="180" y="280" width="10" height="10"/>
  <rect x="240" y="280" width="10" height="10"/>
  <rect x="260" y="280" width="10" height="10"/>
  <path class="st2" d="M0,0h70v70H0V0ZM10,10h50v50H10V10Z"/>
  <path d="M20,20h30v30h-30v-30Z"/>
  <path class="st2" d="M220,0h70v70h-70V0ZM230,10h50v50h-50V10Z"/>
  <path d="M240,20h30v30h-30v-30Z"/>
  <path class="st2" d="M0,220h70v70H0v-70ZM10,230h50v50H10v-50Z"/>
  <path d="M20,240h30v30h-30v-30Z"/>
  <g>
    <path class="st0" d="M127.6,121.2c2.7,0,5.2.3,7.5,1.7.7.4,1.4.8,2.1,1.2v.4c.1,0,.2.1.3.2,2.6,1.4,4.5,4.7,5.4,7.4,0,.1,0,.3.1.4.1.4.3.8.4,1.3,0,.2,0,.3.2.5.8,2.8.6,5.7.6,8.5,0,.6,0,1.3,0,1.9,0,1.8,0,3.6,0,5.5q0,12.8,1.3,16.7c.2.6.2,1.2.1,1.9-1,.5-1.9.4-3,.4-.2,0-.4,0-.5,0-3.3,0-5.8-1.5-8.1-3.8q-1.3-1.4-1.3-2h-.4c-.3-.5-.6-1.1-.9-1.7q0,0-.2.4c-1.9,3.3-4.2,5.6-7.8,6.8-1.1.3-2.2.3-3.3.2-.2,0-.4,0-.7,0-3.3,0-6-1.4-8.5-3.6-.6-.6-1-1.2-1.5-1.8,0-.1-.2-.3-.3-.4-1.9-2.9-2.3-6.3-1.8-9.7.1-.5.3-1,.4-1.5,0-.1,0-.3.1-.4.7-2.8,2.4-5.3,4.8-6.8,1.4-.8,2.7-1.3,4.3-1.6.1,0,.3,0,.5,0,1.1-.2,2.3-.4,3.4-.6q5.7-.8,7.4-2.8c.3-.5.6-1,.9-1.5,0-.2.2-.3.3-.5,1.8-3.5,1.8-7.9.8-11.7-.5-1.5-1.5-2.8-2.5-4.1q-.2-.4-.2-.9Z"/>
    <path class="st0" d="M154.6,120.8c.4,0,.8,0,1.2,0,1.7,0,3.1.2,4.6.8v.4c.1,0,.2,0,.3,0,1.1.3,2,.8,2.8,1.6v.4c.1,0,.2,0,.3,0,1.2.4,1.8,2,2.4,3,1.5,3.1,1.5,6.2,1.4,9.6,0,.5,0,1,0,1.4,0,3.1-.1,6.2-.3,9.3-.3,5.3-.6,11,1,16.2.2.8.4,1.7.5,2.5q0,0,0,.5c.1.8.2,1.5.2,2.3-1.1.3-2.2.4-3.4.4-.2,0-.3,0-.5,0-2.9,0-5-1-7.2-3q-.4-.4-.6-.8t-.7-.5v-.6h-.4c-.5-.6-.8-1.2-1-1.9-.2-.6-.5-1.3-.8-1.9-.8-2.1-.8-4.5-.8-6.7,0-.2,0-.4,0-.6,0-1.8.1-3.7.2-5.5.1-2.8.2-5.6.3-8.4,0-.1,0-.3,0-.4q0-7.5-2.1-9.7c-1-.8-1.8-.9-3-.8-1.1.1-2,.6-3,1q0,0-.5.2c-.6.3-1.2.5-1.7.9q-.5,0-.9,0c.5-2.2,1-4.3,2.8-5.9.1-.2.3-.3.4-.5,2.2-2.7,5.3-3.4,8.6-3.4Z"/>
    <path class="st1" d="M124.6,120.8c0,0-.1.2-.2.3-.7.9-1.2,1.8-1.8,2.7,0,.1-.2.2-.2.4h-.4c0,.1,0,.2,0,.3q0,0,0,.4c0,.1,0,.3,0,.4q-.1.5-.3.8c-.5,1.3-.5,2.6-.5,4,0,.2,0,.5,0,.7,0,.7,0,1.3,0,2,0,.7,0,1.3,0,2,0,1.3,0,2.6,0,3.9h-.4c0,.1,0,.2-.1.3-.3.5-.6.5-1.2.7-1.6.3-3.6.4-5-.4-1.2-.9-2.3-1.9-3.1-3.2v-.6h-.4c-.8-2.4-.9-4.9.2-7.2,1.1-2.2,2.9-4.1,5.2-5.2h.4v-.4c1-.6,1.9-1,3-1.3q.5-.1.9-.3c1.4-.5,2.7-.4,4.2-.4Z"/>
    <path class="st1" d="M180.2,157.2c1.4,1.3,2.4,2.6,2.6,4.5,0,1.4,0,2.5-.8,3.7q0,0-.2.4c-.6,1-1.3,1.7-2.3,2.3-.1,0-.2.2-.4.3-1.1.7-2.2.7-3.4.8-.2,0-.3,0-.5,0-1.7,0-2.9-.7-4.2-1.9-1.2-1.4-2-3.3-1.9-5.2.3-2.4,1.4-4.1,3.2-5.7,2.2-1.7,6-1,8,.7Z"/>
    <path class="st3" d="M130.2,142.2h.6v16.8c-2.8.8-5.3,1.3-7.9-.2-.8-.6-1.4-1.6-1.7-2.6-.2-2.4.4-4.2,1.7-6.3.1-.2.3-.5.4-.7.4-.6.8-1,1.3-1.5.2-.3.5-.6.7-.9,1.3-1.6,2.7-2.8,4.3-4.1q.5-.4.7-.6Z"/>
  </g>
</svg>